# xmcd CD database file
#
# Track frame offsets:
#	150
#	24874
#	47004
#	77828
#	99950
#	124647
#	160527
#	191749
#	221443
#	253395
#
# Disc length: 3772 seconds
#
# Revision: 0
# Processed by: cddbd v1.5.2PL0 Copyright (c) Steve Scherf et al.
# Submitted via: CDex 1.51
#
DISCID=790eba0a
DTITLE=Dave Brubeck／Herbie Hancock - Dave Brubeck／Herbie Hancock
DYEAR=1900
DGENRE=Jazz
TTITLE0=Three To Get Leady
TTITLE1=Kathy's Waltz
TTITLE2=Blue Rondo A La Turk
TTITLE3=When You Wish Upon A Star
TTITLE4=Take Five
TTITLE5=Maiden Voyage
TTITLE6=The Maze
TTITLE7=Alone and I
TTITLE8=Water Melon Man
TTITLE9=The Eye Of The Harricane
EXTD=
EXTT0=
EXTT1=
EXTT2=
EXTT3=
EXTT4=
EXTT5=
EXTT6=
EXTT7=
EXTT8=
EXTT9=
PLAYORDER=
